<svg width="24" height="24" viewBox="0 0 24 24" fill="none" xmlns="http://www.w3.org/2000/svg">
<path d="M3.5 8.5H20.5V18.6C20.5 19.1798 20.4989 19.5644 20.4605 19.8501C20.424 20.1214 20.3623 20.2276 20.295 20.295C20.2276 20.3623 20.1214 20.424 19.8501 20.4605C19.5644 20.4989 19.1798 20.5 18.6 20.5H5.4C4.82018 20.5 4.43561 20.4989 4.1499 20.4605C3.87857 20.424 3.77238 20.3623 3.70503 20.295C3.63767 20.2276 3.57596 20.1214 3.53948 19.8501C3.50106 19.5644 3.5 19.1798 3.5 18.6V8.5Z" stroke="#0E0E0E"/>
<rect x="1.5" y="3.5" width="21" height="5" rx="0.7" stroke="#0E0E0E"/>
</svg>
