<svg width="24" height="24" viewBox="0 0 24 24" fill="none" xmlns="http://www.w3.org/2000/svg">
<mask id="path-1-inside-1_1603_3415" fill="white">
<path d="M3 10.5C3 10.2239 3.22386 10 3.5 10V10C3.77614 10 4 10.2239 4 10.5V20.5C4 20.7761 3.77614 21 3.5 21V21C3.22386 21 3 20.7761 3 20.5V10.5Z"/>
</mask>
<path d="M3 10.5C3 10.2239 3.22386 10 3.5 10V10C3.77614 10 4 10.2239 4 10.5V20.5C4 20.7761 3.77614 21 3.5 21V21C3.22386 21 3 20.7761 3 20.5V10.5Z" fill="#0E0E0E"/>
<path d="M3 10.5V20.5H5V10.5H3ZM4 20.5V10.5H2V20.5H4ZM3.5 20C3.77614 20 4 20.2239 4 20.5H2C2 21.3284 2.67157 22 3.5 22V20ZM3 20.5C3 20.2239 3.22386 20 3.5 20V22C4.32843 22 5 21.3284 5 20.5H3ZM3.5 11C3.22386 11 3 10.7761 3 10.5H5C5 9.67157 4.32843 9 3.5 9V11ZM3.5 9C2.67157 9 2 9.67157 2 10.5H4C4 10.7761 3.77614 11 3.5 11V9Z" fill="#0E0E0E" mask="url(#path-1-inside-1_1603_3415)"/>
<mask id="path-3-inside-2_1603_3415" fill="white">
<path d="M20 10.5C20 10.2239 20.2239 10 20.5 10V10C20.7761 10 21 10.2239 21 10.5V20.5C21 20.7761 20.7761 21 20.5 21V21C20.2239 21 20 20.7761 20 20.5V10.5Z"/>
</mask>
<path d="M20 10.5C20 10.2239 20.2239 10 20.5 10V10C20.7761 10 21 10.2239 21 10.5V20.5C21 20.7761 20.7761 21 20.5 21V21C20.2239 21 20 20.7761 20 20.5V10.5Z" fill="#0E0E0E"/>
<path d="M20 10.5V20.5H22V10.5H20ZM21 20.5V10.5H19V20.5H21ZM20.5 20C20.7761 20 21 20.2239 21 20.5H19C19 21.3284 19.6716 22 20.5 22V20ZM20 20.5C20 20.2239 20.2239 20 20.5 20V22C21.3284 22 22 21.3284 22 20.5H20ZM20.5 11C20.2239 11 20 10.7761 20 10.5H22C22 9.67157 21.3284 9 20.5 9V11ZM20.5 9C19.6716 9 19 9.67157 19 10.5H21C21 10.7761 20.7761 11 20.5 11V9Z" fill="#0E0E0E" mask="url(#path-3-inside-2_1603_3415)"/>
<path d="M3.5 6.5H20.5V16.6C20.5 17.1798 20.4989 17.5644 20.4605 17.8501C20.424 18.1214 20.3623 18.2276 20.295 18.295C20.2276 18.3623 20.1214 18.424 19.8501 18.4605C19.5644 18.4989 19.1798 18.5 18.6 18.5H5.4C4.82018 18.5 4.43561 18.4989 4.1499 18.4605C3.87857 18.424 3.77238 18.3623 3.70503 18.295C3.63767 18.2276 3.57596 18.1214 3.53948 17.8501C3.50106 17.5644 3.5 17.1798 3.5 16.6V6.5Z" stroke="#0E0E0E"/>
<rect x="8.25" y="6.25" width="0.5" height="12.5" fill="#0E0E0E" stroke="#0E0E0E" stroke-width="0.5"/>
<rect x="15.25" y="6.25" width="0.5" height="12.5" fill="#0E0E0E" stroke="#0E0E0E" stroke-width="0.5"/>
<rect x="2.5" y="3.5" width="19" height="3" rx="0.7" stroke="#0E0E0E"/>
<circle cx="5.5" cy="9.5" r="0.5" fill="#E31E24"/>
<circle cx="10.5" cy="9.5" r="0.5" fill="#E31E24"/>
<circle cx="17.5" cy="9.5" r="0.5" fill="#E31E24"/>
</svg>
