<svg width="24" height="24" viewBox="0 0 24 24" fill="none" xmlns="http://www.w3.org/2000/svg">
<mask id="path-1-inside-1_1603_3282" fill="white">
<path d="M12 18H13V22.5C13 22.7761 12.7761 23 12.5 23V23C12.2239 23 12 22.7761 12 22.5V18Z"/>
</mask>
<path d="M12 18H13V22.5C13 22.7761 12.7761 23 12.5 23V23C12.2239 23 12 22.7761 12 22.5V18Z" fill="#0E0E0E"/>
<path d="M12 18V17H11V18H12ZM13 18H14V17H13V18ZM12 19H13V17H12V19ZM12 18V22.5H14V18H12ZM13 22.5V18H11V22.5H13ZM12.5 22C12.7761 22 13 22.2239 13 22.5H11C11 23.3284 11.6716 24 12.5 24V22ZM12 22.5C12 22.2239 12.2239 22 12.5 22V24C13.3284 24 14 23.3284 14 22.5H12Z" fill="#0E0E0E" mask="url(#path-1-inside-1_1603_3282)"/>
<mask id="path-3-inside-2_1603_3282" fill="white">
<path d="M12 12H13V15H12V12Z"/>
</mask>
<path d="M12 12H13V15H12V12Z" fill="#0E0E0E"/>
<path d="M12 12V11H11V12H12ZM13 12H14V11H13V12ZM13 15V16H14V15H13ZM12 15H11V16H12V15ZM12 13H13V11H12V13ZM12 12V15H14V12H12ZM13 14H12V16H13V14ZM13 15V12H11V15H13Z" fill="#0E0E0E" mask="url(#path-3-inside-2_1603_3282)"/>
<g clip-path="url(#clip0_1603_3282)">
<mask id="path-5-inside-3_1603_3282" fill="white">
<path d="M4 12H21V15.308C21 15.7659 21 15.9949 20.9383 16.1798C20.8189 16.5379 20.5379 16.8189 20.1798 16.9383C19.9949 17 19.7659 17 19.308 17H5.692C5.23407 17 5.00511 17 4.82023 16.9383C4.46214 16.8189 4.18115 16.5379 4.06168 16.1798C4 15.9949 4 15.7659 4 15.308V12Z"/>
</mask>
<path d="M4 12H21H4ZM22 15.8C22 17.015 21.015 18 19.8 18H5.2C3.98497 18 3 17.015 3 15.8H5C5 15.9105 5.08954 16 5.2 16H19.8C19.9105 16 20 15.9105 20 15.8H22ZM5.2 18C3.98497 18 3 17.015 3 15.8V12H5V15.8C5 15.9105 5.08954 16 5.2 16V18ZM22 12V15.8C22 17.015 21.015 18 19.8 18V16C19.9105 16 20 15.9105 20 15.8V12H22Z" fill="#0E0E0E" mask="url(#path-5-inside-3_1603_3282)"/>
</g>
<g clip-path="url(#clip1_1603_3282)">
<mask id="path-7-inside-4_1603_3282" fill="white">
<path d="M4 12H21V15.308C21 15.7659 21 15.9949 20.9383 16.1798C20.8189 16.5379 20.5379 16.8189 20.1798 16.9383C19.9949 17 19.7659 17 19.308 17H5.692C5.23407 17 5.00511 17 4.82023 16.9383C4.46214 16.8189 4.18115 16.5379 4.06168 16.1798C4 15.9949 4 15.7659 4 15.308V12Z"/>
</mask>
<path d="M4 12H21H4ZM22 15.8C22 17.015 21.015 18 19.8 18H5.2C3.98497 18 3 17.015 3 15.8H5C5 15.9105 5.08954 16 5.2 16H19.8C19.9105 16 20 15.9105 20 15.8H22ZM5.2 18C3.98497 18 3 17.015 3 15.8V12H5V15.8C5 15.9105 5.08954 16 5.2 16V18ZM22 12V15.8C22 17.015 21.015 18 19.8 18V16C19.9105 16 20 15.9105 20 15.8V12H22Z" fill="#0E0E0E" mask="url(#path-7-inside-4_1603_3282)"/>
</g>
<rect x="6" y="15" width="13" height="3" rx="1.2" stroke="#0E0E0E"/>
<path d="M11.0486 1.5H13.9514C14.9257 1.5 15.6081 1.50099 16.1278 1.56847C16.6333 1.63411 16.9165 1.75549 17.1268 1.949C17.3371 2.14251 17.4816 2.41467 17.589 2.91295C17.6994 3.42523 17.757 4.10518 17.8379 5.07612L18.2851 10.4422C18.337 11.065 18.3705 11.4803 18.3536 11.7902C18.3375 12.0856 18.2783 12.2007 18.211 12.274C18.1436 12.3472 18.0338 12.4157 17.7407 12.4563C17.4333 12.4989 17.0166 12.5 16.3917 12.5H8.60832C7.98335 12.5 7.56671 12.4989 7.25933 12.4563C6.96624 12.4157 6.85642 12.3472 6.78904 12.274C6.72166 12.2007 6.66252 12.0856 6.64641 11.7902C6.62951 11.4803 6.66298 11.065 6.71488 10.4422L7.16206 5.07612C7.24297 4.10518 7.30062 3.42523 7.41103 2.91295C7.51841 2.41467 7.6629 2.14251 7.87321 1.949C8.08352 1.75549 8.36674 1.63411 8.8722 1.56847C9.39189 1.50099 10.0743 1.5 11.0486 1.5Z" stroke="#0E0E0E"/>
<rect x="8.25" y="22.25" width="8.5" height="0.5" rx="0.25" fill="#0E0E0E" stroke="#0E0E0E" stroke-width="0.5"/>
<rect x="10" y="4" width="1" height="1" rx="0.5" fill="#E31E24"/>
<rect x="9" y="9" width="1" height="1" rx="0.5" fill="#E31E24"/>
<rect x="15" y="9" width="1" height="1" rx="0.5" fill="#E31E24"/>
<rect x="14" y="4" width="1" height="1" rx="0.5" fill="#E31E24"/>
<rect x="12" y="7" width="1" height="1" rx="0.5" fill="#E31E24"/>
<defs>
<clipPath id="clip0_1603_3282">
<rect width="2" height="5" fill="white" transform="translate(4 12)"/>
</clipPath>
<clipPath id="clip1_1603_3282">
<rect width="2" height="5" fill="white" transform="translate(19 12)"/>
</clipPath>
</defs>
</svg>
