<svg width="24" height="24" viewBox="0 0 24 24" fill="none" xmlns="http://www.w3.org/2000/svg">
<mask id="path-1-inside-1_1603_3404" fill="white">
<path d="M2 2.5C2 2.22386 2.22386 2 2.5 2V2C2.77614 2 3 2.22386 3 2.5V21.5C3 21.7761 2.77614 22 2.5 22V22C2.22386 22 2 21.7761 2 21.5V2.5Z"/>
</mask>
<path d="M2 2.5C2 2.22386 2.22386 2 2.5 2V2C2.77614 2 3 2.22386 3 2.5V21.5C3 21.7761 2.77614 22 2.5 22V22C2.22386 22 2 21.7761 2 21.5V2.5Z" fill="#0E0E0E"/>
<path d="M2 2.5V21.5H4V2.5H2ZM3 21.5V2.5H1V21.5H3ZM2.5 21C2.77614 21 3 21.2239 3 21.5H1C1 22.3284 1.67157 23 2.5 23V21ZM2 21.5C2 21.2239 2.22386 21 2.5 21V23C3.32843 23 4 22.3284 4 21.5H2ZM2.5 3C2.22386 3 2 2.77614 2 2.5H4C4 1.67157 3.32843 1 2.5 1V3ZM2.5 1C1.67157 1 1 1.67157 1 2.5H3C3 2.77614 2.77614 3 2.5 3V1Z" fill="#0E0E0E" mask="url(#path-1-inside-1_1603_3404)"/>
<mask id="path-3-inside-2_1603_3404" fill="white">
<path d="M2 21H3V21.5C3 21.7761 2.77614 22 2.5 22V22C2.22386 22 2 21.7761 2 21.5V21Z"/>
</mask>
<path d="M2 21H3V21.5C3 21.7761 2.77614 22 2.5 22V22C2.22386 22 2 21.7761 2 21.5V21Z" fill="#0E0E0E"/>
<path d="M2 21V20H1V21H2ZM3 21H4V20H3V21ZM2 22H3V20H2V22ZM2 21V21.5H4V21H2ZM3 21.5V21H1V21.5H3ZM2.5 21C2.77614 21 3 21.2239 3 21.5H1C1 22.3284 1.67157 23 2.5 23V21ZM2 21.5C2 21.2239 2.22386 21 2.5 21V23C3.32843 23 4 22.3284 4 21.5H2Z" fill="#E31E24" mask="url(#path-3-inside-2_1603_3404)"/>
<mask id="path-5-inside-3_1603_3404" fill="white">
<path d="M21 2.5C21 2.22386 21.2239 2 21.5 2V2C21.7761 2 22 2.22386 22 2.5V21.5C22 21.7761 21.7761 22 21.5 22V22C21.2239 22 21 21.7761 21 21.5V2.5Z"/>
</mask>
<path d="M21 2.5C21 2.22386 21.2239 2 21.5 2V2C21.7761 2 22 2.22386 22 2.5V21.5C22 21.7761 21.7761 22 21.5 22V22C21.2239 22 21 21.7761 21 21.5V2.5Z" fill="#0E0E0E"/>
<path d="M21 2.5V21.5H23V2.5H21ZM22 21.5V2.5H20V21.5H22ZM21.5 21C21.7761 21 22 21.2239 22 21.5H20C20 22.3284 20.6716 23 21.5 23V21ZM21 21.5C21 21.2239 21.2239 21 21.5 21V23C22.3284 23 23 22.3284 23 21.5H21ZM21.5 3C21.2239 3 21 2.77614 21 2.5H23C23 1.67157 22.3284 1 21.5 1V3ZM21.5 1C20.6716 1 20 1.67157 20 2.5H22C22 2.77614 21.7761 3 21.5 3V1Z" fill="#0E0E0E" mask="url(#path-5-inside-3_1603_3404)"/>
<path d="M2.5 3.5H21.5V8.5H2.5V3.5Z" stroke="#0E0E0E"/>
<path d="M2.5 8.5H21.5V13.5H2.5V8.5Z" stroke="#0E0E0E"/>
<path d="M2.5 13.5H21.5V18.5H2.5V13.5Z" stroke="#0E0E0E"/>
<mask id="path-10-inside-4_1603_3404" fill="white">
<path d="M21 21H22V21.5C22 21.7761 21.7761 22 21.5 22V22C21.2239 22 21 21.7761 21 21.5V21Z"/>
</mask>
<path d="M21 21H22V21.5C22 21.7761 21.7761 22 21.5 22V22C21.2239 22 21 21.7761 21 21.5V21Z" fill="#0E0E0E"/>
<path d="M21 21V20H20V21H21ZM22 21H23V20H22V21ZM21 22H22V20H21V22ZM21 21V21.5H23V21H21ZM22 21.5V21H20V21.5H22ZM21.5 21C21.7761 21 22 21.2239 22 21.5H20C20 22.3284 20.6716 23 21.5 23V21ZM21 21.5C21 21.2239 21.2239 21 21.5 21V23C22.3284 23 23 22.3284 23 21.5H21Z" fill="#E31E24" mask="url(#path-10-inside-4_1603_3404)"/>
</svg>
