<svg width="24" height="24" viewBox="0 0 24 24" fill="none" xmlns="http://www.w3.org/2000/svg">
<mask id="path-1-inside-1_1603_3315" fill="white">
<path d="M3 17H4V20.5C4 20.7761 3.77614 21 3.5 21V21C3.22386 21 3 20.7761 3 20.5V17Z"/>
</mask>
<path d="M3 17H4V20.5C4 20.7761 3.77614 21 3.5 21V21C3.22386 21 3 20.7761 3 20.5V17Z" fill="#0E0E0E"/>
<path d="M3 17V16H2V17H3ZM4 17H5V16H4V17ZM3 18H4V16H3V18ZM3 17V20.5H5V17H3ZM4 20.5V17H2V20.5H4ZM3.5 20C3.77614 20 4 20.2239 4 20.5H2C2 21.3284 2.67157 22 3.5 22V20ZM3 20.5C3 20.2239 3.22386 20 3.5 20V22C4.32843 22 5 21.3284 5 20.5H3Z" fill="#0E0E0E" mask="url(#path-1-inside-1_1603_3315)"/>
<mask id="path-3-inside-2_1603_3315" fill="white">
<path d="M20 17H21V20.5C21 20.7761 20.7761 21 20.5 21V21C20.2239 21 20 20.7761 20 20.5V17Z"/>
</mask>
<path d="M20 17H21V20.5C21 20.7761 20.7761 21 20.5 21V21C20.2239 21 20 20.7761 20 20.5V17Z" fill="#0E0E0E"/>
<path d="M20 17V16H19V17H20ZM21 17H22V16H21V17ZM20 18H21V16H20V18ZM20 17V20.5H22V17H20ZM21 20.5V17H19V20.5H21ZM20.5 20C20.7761 20 21 20.2239 21 20.5H19C19 21.3284 19.6716 22 20.5 22V20ZM20 20.5C20 20.2239 20.2239 20 20.5 20V22C21.3284 22 22 21.3284 22 20.5H20Z" fill="#0E0E0E" mask="url(#path-3-inside-2_1603_3315)"/>
<path d="M5.5 12.5H18.5V17.5H5.5V12.5Z" stroke="#0E0E0E"/>
<g clip-path="url(#clip0_1603_3315)">
<path d="M6.41025 3.5H17.5897C18.4906 3.5 19.12 3.50091 19.6027 3.56111C20.0717 3.61958 20.3405 3.7279 20.5459 3.9015C20.7514 4.0751 20.903 4.32206 21.0389 4.77467C21.1789 5.24064 21.2848 5.86106 21.4351 6.74925L22.4083 12.5H1.59172L2.56493 6.74925C2.71524 5.86106 2.82115 5.24064 2.96106 4.77467C3.09696 4.32206 3.24861 4.0751 3.45406 3.9015C3.65951 3.7279 3.92832 3.61958 4.39726 3.56111C4.88003 3.50091 5.50943 3.5 6.41025 3.5Z" stroke="#0E0E0E"/>
</g>
<path d="M3.4 9.5H3.6C4.17982 9.5 4.56439 9.50106 4.8501 9.53948C5.12143 9.57596 5.22762 9.63767 5.29497 9.70503C5.36233 9.77238 5.42405 9.87857 5.46052 10.1499C5.49894 10.4356 5.5 10.8202 5.5 11.4V17.5H3.4C2.82018 17.5 2.43561 17.4989 2.1499 17.4605C1.87857 17.424 1.77238 17.3623 1.70503 17.295C1.63767 17.2276 1.57596 17.1214 1.53948 16.8501C1.50106 16.5644 1.5 16.1798 1.5 15.6V11.4C1.5 10.8202 1.50106 10.4356 1.53948 10.1499C1.57596 9.87857 1.63767 9.77238 1.70503 9.70503C1.77238 9.63767 1.87857 9.57596 2.1499 9.53948C2.43561 9.50106 2.82018 9.5 3.4 9.5Z" stroke="#0E0E0E"/>
<path d="M20.4 9.5H20.6C21.1798 9.5 21.5644 9.50106 21.8501 9.53948C22.1214 9.57596 22.2276 9.63767 22.295 9.70503C22.3623 9.77238 22.424 9.87857 22.4605 10.1499C22.4989 10.4356 22.5 10.8202 22.5 11.4V15.6C22.5 16.1798 22.4989 16.5644 22.4605 16.8501C22.424 17.1214 22.3623 17.2276 22.295 17.295C22.2276 17.3623 22.1214 17.424 21.8501 17.4605C21.5644 17.4989 21.1798 17.5 20.6 17.5H18.5V11.4C18.5 10.8202 18.5011 10.4356 18.5395 10.1499C18.576 9.87857 18.6377 9.77238 18.705 9.70503C18.7724 9.63767 18.8786 9.57596 19.1499 9.53948C19.4356 9.50106 19.8202 9.5 20.4 9.5Z" stroke="#0E0E0E"/>
<rect x="7" y="6" width="1" height="1" rx="0.5" fill="#E31E24"/>
<rect x="10" y="6" width="1" height="1" rx="0.5" fill="#E31E24"/>
<rect x="13" y="6" width="1" height="1" rx="0.5" fill="#E31E24"/>
<rect x="16" y="6" width="1" height="1" rx="0.5" fill="#E31E24"/>
<rect x="7" y="9" width="1" height="1" rx="0.5" fill="#E31E24"/>
<rect x="10" y="9" width="1" height="1" rx="0.5" fill="#E31E24"/>
<rect x="13" y="9" width="1" height="1" rx="0.5" fill="#E31E24"/>
<rect x="16" y="9" width="1" height="1" rx="0.5" fill="#E31E24"/>
<defs>
<clipPath id="clip0_1603_3315">
<rect width="22" height="7" fill="white" transform="translate(1 3)"/>
</clipPath>
</defs>
</svg>
