<svg width="24" height="24" viewBox="0 0 24 24" fill="none" xmlns="http://www.w3.org/2000/svg">
<rect x="3.5" y="1.5" width="16" height="21" rx="0.7" stroke="#0E0E0E"/>
<path d="M3.5 15.5H19.5V20.6C19.5 21.1798 19.4989 21.5644 19.4605 21.8501C19.424 22.1214 19.3623 22.2276 19.295 22.295C19.2276 22.3623 19.1214 22.424 18.8501 22.4605C18.5644 22.4989 18.1798 22.5 17.6 22.5H5.4C4.82018 22.5 4.43561 22.4989 4.1499 22.4605C3.87857 22.424 3.77238 22.3623 3.70503 22.295C3.63767 22.2276 3.57596 22.1214 3.53948 21.8501C3.50106 21.5644 3.5 21.1798 3.5 20.6V15.5Z" stroke="#0E0E0E"/>
<mask id="path-3-inside-1_1603_3394" fill="white">
<path d="M11 4.5C11 4.22386 11.2239 4 11.5 4V4C11.7761 4 12 4.22386 12 4.5V10.5C12 10.7761 11.7761 11 11.5 11V11C11.2239 11 11 10.7761 11 10.5V4.5Z"/>
</mask>
<path d="M11 4.5C11 4.22386 11.2239 4 11.5 4V4C11.7761 4 12 4.22386 12 4.5V10.5C12 10.7761 11.7761 11 11.5 11V11C11.2239 11 11 10.7761 11 10.5V4.5Z" fill="#E31E24"/>
<path d="M11 4.5V10.5H13V4.5H11ZM12 10.5V4.5H10V10.5H12ZM11.5 10C11.7761 10 12 10.2239 12 10.5H10C10 11.3284 10.6716 12 11.5 12V10ZM11 10.5C11 10.2239 11.2239 10 11.5 10V12C12.3284 12 13 11.3284 13 10.5H11ZM11.5 5C11.2239 5 11 4.77614 11 4.5H13C13 3.67157 12.3284 3 11.5 3V5ZM11.5 3C10.6716 3 10 3.67157 10 4.5H12C12 4.77614 11.7761 5 11.5 5V3Z" fill="#E31E24" mask="url(#path-3-inside-1_1603_3394)"/>
<mask id="path-5-inside-2_1603_3394" fill="white">
<path d="M14.5 7C14.7761 7 15 7.22386 15 7.5V7.5C15 7.77614 14.7761 8 14.5 8L8.5 8C8.22386 8 8 7.77614 8 7.5V7.5C8 7.22386 8.22386 7 8.5 7L14.5 7Z"/>
</mask>
<path d="M14.5 7C14.7761 7 15 7.22386 15 7.5V7.5C15 7.77614 14.7761 8 14.5 8L8.5 8C8.22386 8 8 7.77614 8 7.5V7.5C8 7.22386 8.22386 7 8.5 7L14.5 7Z" fill="#E31E24"/>
<path d="M14.5 7L8.5 7L8.5 9L14.5 9L14.5 7ZM8.5 8L14.5 8L14.5 6L8.5 6L8.5 8ZM9 7.5C9 7.77614 8.77614 8 8.5 8L8.5 6C7.67157 6 7 6.67157 7 7.5L9 7.5ZM8.5 7C8.77614 7 9 7.22386 9 7.5L7 7.5C7 8.32843 7.67157 9 8.5 9L8.5 7ZM14 7.5C14 7.22386 14.2239 7 14.5 7L14.5 9C15.3284 9 16 8.32843 16 7.5L14 7.5ZM16 7.5C16 6.67157 15.3284 6 14.5 6L14.5 8C14.2239 8 14 7.77614 14 7.5L16 7.5Z" fill="#E31E24" mask="url(#path-5-inside-2_1603_3394)"/>
</svg>
