<svg width="24" height="24" viewBox="0 0 24 24" fill="none" xmlns="http://www.w3.org/2000/svg">
<rect x="1.5" y="3.5" width="21" height="5" rx="0.7" stroke="#0E0E0E"/>
<mask id="path-2-inside-1_1603_3342" fill="white">
<path d="M20 9H21V20.5C21 20.7761 20.7761 21 20.5 21V21C20.2239 21 20 20.7761 20 20.5V9Z"/>
</mask>
<path d="M20 9H21V20.5C21 20.7761 20.7761 21 20.5 21V21C20.2239 21 20 20.7761 20 20.5V9Z" fill="#0E0E0E"/>
<path d="M20 9V8H19V9H20ZM21 9H22V8H21V9ZM20 10H21V8H20V10ZM20 9V20.5H22V9H20ZM21 20.5V9H19V20.5H21ZM20.5 20C20.7761 20 21 20.2239 21 20.5H19C19 21.3284 19.6716 22 20.5 22V20ZM20 20.5C20 20.2239 20.2239 20 20.5 20V22C21.3284 22 22 21.3284 22 20.5H20Z" fill="#0E0E0E" mask="url(#path-2-inside-1_1603_3342)"/>
<mask id="path-4-inside-2_1603_3342" fill="white">
<path d="M3 9H4V20.5C4 20.7761 3.77614 21 3.5 21V21C3.22386 21 3 20.7761 3 20.5V9Z"/>
</mask>
<path d="M3 9H4V20.5C4 20.7761 3.77614 21 3.5 21V21C3.22386 21 3 20.7761 3 20.5V9Z" fill="#0E0E0E"/>
<path d="M3 9V8H2V9H3ZM4 9H5V8H4V9ZM3 10H4V8H3V10ZM3 9V20.5H5V9H3ZM4 20.5V9H2V20.5H4ZM3.5 20C3.77614 20 4 20.2239 4 20.5H2C2 21.3284 2.67157 22 3.5 22V20ZM3 20.5C3 20.2239 3.22386 20 3.5 20V22C4.32843 22 5 21.3284 5 20.5H3Z" fill="#0E0E0E" mask="url(#path-4-inside-2_1603_3342)"/>
</svg>
