<svg width="24" height="24" viewBox="0 0 24 24" fill="none" xmlns="http://www.w3.org/2000/svg">
<mask id="path-1-inside-1_2298_2170" fill="white">
<path d="M5 14.5C5 14.2239 5.22386 14 5.5 14V14C5.77614 14 6 14.2239 6 14.5V22.5C6 22.7761 5.77614 23 5.5 23V23C5.22386 23 5 22.7761 5 22.5V14.5Z"/>
</mask>
<path d="M5 14.5C5 14.2239 5.22386 14 5.5 14V14C5.77614 14 6 14.2239 6 14.5V22.5C6 22.7761 5.77614 23 5.5 23V23C5.22386 23 5 22.7761 5 22.5V14.5Z" fill="#0E0E0E"/>
<path d="M5 14.5V22.5H7V14.5H5ZM6 22.5V14.5H4V22.5H6ZM5.5 22C5.77614 22 6 22.2239 6 22.5H4C4 23.3284 4.67157 24 5.5 24V22ZM5 22.5C5 22.2239 5.22386 22 5.5 22V24C6.32843 24 7 23.3284 7 22.5H5ZM5.5 15C5.22386 15 5 14.7761 5 14.5H7C7 13.6716 6.32843 13 5.5 13V15ZM5.5 13C4.67157 13 4 13.6716 4 14.5H6C6 14.7761 5.77614 15 5.5 15V13Z" fill="#0E0E0E" mask="url(#path-1-inside-1_2298_2170)"/>
<rect x="3.25" y="22.25" width="4.5" height="0.5" rx="0.25" fill="#0E0E0E" stroke="#0E0E0E" stroke-width="0.5"/>
<mask id="path-4-inside-2_2298_2170" fill="white">
<rect x="1" y="14" width="9" height="1" rx="0.3"/>
</mask>
<rect x="1" y="14" width="9" height="1" rx="0.3" fill="#0E0E0E" stroke="#0E0E0E" mask="url(#path-4-inside-2_2298_2170)"/>
<mask id="path-5-inside-3_2298_2170" fill="white">
<rect x="1" y="4" width="1" height="11" rx="0.3"/>
</mask>
<rect x="1" y="4" width="1" height="11" rx="0.3" fill="#0E0E0E" stroke="#0E0E0E" mask="url(#path-5-inside-3_2298_2170)"/>
<path d="M8.26251 2.55979L12.5 1.62266L12.5 10.3773L8.26252 9.44021C7.56987 9.28702 7.08677 9.17958 6.71856 9.05822C6.35985 8.93999 6.15624 8.82241 6.00638 8.67463C5.91279 8.58235 5.83023 8.47953 5.76033 8.36822C5.6484 8.18999 5.57756 7.96579 5.53958 7.59001C5.50059 7.20429 5.5 6.70938 5.5 6C5.5 5.29062 5.50059 4.79571 5.53958 4.40998C5.57756 4.03421 5.6484 3.81001 5.76033 3.63178C5.83023 3.52047 5.91279 3.41765 6.00638 3.32537C6.15624 3.17759 6.35985 3.06001 6.71856 2.94178C7.08677 2.82042 7.56987 2.71297 8.26251 2.55979Z" stroke="#0E0E0E"/>
<mask id="path-7-inside-4_2298_2170" fill="white">
<path d="M18 14.5C18 14.2239 18.2239 14 18.5 14V14C18.7761 14 19 14.2239 19 14.5V22.5C19 22.7761 18.7761 23 18.5 23V23C18.2239 23 18 22.7761 18 22.5V14.5Z"/>
</mask>
<path d="M18 14.5C18 14.2239 18.2239 14 18.5 14V14C18.7761 14 19 14.2239 19 14.5V22.5C19 22.7761 18.7761 23 18.5 23V23C18.2239 23 18 22.7761 18 22.5V14.5Z" fill="#0E0E0E"/>
<path d="M18 14.5V22.5H20V14.5H18ZM19 22.5V14.5H17V22.5H19ZM18.5 22C18.7761 22 19 22.2239 19 22.5H17C17 23.3284 17.6716 24 18.5 24V22ZM18 22.5C18 22.2239 18.2239 22 18.5 22V24C19.3284 24 20 23.3284 20 22.5H18ZM18.5 15C18.2239 15 18 14.7761 18 14.5H20C20 13.6716 19.3284 13 18.5 13V15ZM18.5 13C17.6716 13 17 13.6716 17 14.5H19C19 14.7761 18.7761 15 18.5 15V13Z" fill="#0E0E0E" mask="url(#path-7-inside-4_2298_2170)"/>
<rect x="16.25" y="22.25" width="4.5" height="0.5" rx="0.25" fill="#0E0E0E" stroke="#0E0E0E" stroke-width="0.5"/>
<mask id="path-10-inside-5_2298_2170" fill="white">
<rect x="14" y="14" width="9" height="1" rx="0.3"/>
</mask>
<rect x="14" y="14" width="9" height="1" rx="0.3" fill="#0E0E0E" stroke="#0E0E0E" mask="url(#path-10-inside-5_2298_2170)"/>
<mask id="path-11-inside-6_2298_2170" fill="white">
<rect x="22" y="4" width="1" height="11" rx="0.3"/>
</mask>
<rect x="22" y="4" width="1" height="11" rx="0.3" fill="#0E0E0E" stroke="#0E0E0E" mask="url(#path-11-inside-6_2298_2170)"/>
<mask id="path-12-inside-7_2298_2170" fill="white">
<path fill-rule="evenodd" clip-rule="evenodd" d="M15.1345 4.78073C15.1553 4.85837 15.2214 4.92446 15.3536 5.05664L16.7734 6.47652L15.3575 7.8925C15.2253 8.02467 15.1592 8.09076 15.1384 8.1684C15.1248 8.21927 15.1248 8.27283 15.1384 8.3237C15.1592 8.40134 15.2253 8.46743 15.3575 8.5996C15.4896 8.73178 15.5557 8.79787 15.6334 8.81867C15.6842 8.8323 15.7378 8.8323 15.7887 8.81867C15.8663 8.79787 15.9324 8.73178 16.0646 8.5996L17.4805 7.18363L18.8925 8.59562L18.8925 8.59563C19.0247 8.7278 19.0908 8.79388 19.1685 8.81469C19.2193 8.82832 19.2729 8.82832 19.3237 8.81469C19.4014 8.79388 19.4675 8.7278 19.5997 8.59562C19.7318 8.46345 19.7979 8.39736 19.8187 8.31971C19.8323 8.26885 19.8323 8.21529 19.8187 8.16442C19.7979 8.08678 19.7318 8.02069 19.5997 7.88852L18.1877 6.47652L19.6036 5.06062L19.6036 5.06061C19.7357 4.92844 19.8018 4.86235 19.8226 4.78471C19.8363 4.73384 19.8363 4.68028 19.8226 4.62942C19.8018 4.55177 19.7357 4.48569 19.6036 4.35351L19.6036 4.35351C19.4714 4.22134 19.4053 4.15525 19.3276 4.13444C19.2768 4.12081 19.2232 4.12081 19.1724 4.13444C19.0947 4.15525 19.0286 4.22134 18.8965 4.35351L17.4805 5.76941L16.0607 4.34953C15.9285 4.21735 15.8624 4.15127 15.7848 4.13046C15.7339 4.11683 15.6803 4.11683 15.6295 4.13046C15.5518 4.15127 15.4857 4.21735 15.3536 4.34953C15.2214 4.4817 15.1553 4.54779 15.1345 4.62544C15.1209 4.6763 15.1209 4.72986 15.1345 4.78073Z"/>
</mask>
<path fill-rule="evenodd" clip-rule="evenodd" d="M15.1345 4.78073C15.1553 4.85837 15.2214 4.92446 15.3536 5.05664L16.7734 6.47652L15.3575 7.8925C15.2253 8.02467 15.1592 8.09076 15.1384 8.1684C15.1248 8.21927 15.1248 8.27283 15.1384 8.3237C15.1592 8.40134 15.2253 8.46743 15.3575 8.5996C15.4896 8.73178 15.5557 8.79787 15.6334 8.81867C15.6842 8.8323 15.7378 8.8323 15.7887 8.81867C15.8663 8.79787 15.9324 8.73178 16.0646 8.5996L17.4805 7.18363L18.8925 8.59562L18.8925 8.59563C19.0247 8.7278 19.0908 8.79388 19.1685 8.81469C19.2193 8.82832 19.2729 8.82832 19.3237 8.81469C19.4014 8.79388 19.4675 8.7278 19.5997 8.59562C19.7318 8.46345 19.7979 8.39736 19.8187 8.31971C19.8323 8.26885 19.8323 8.21529 19.8187 8.16442C19.7979 8.08678 19.7318 8.02069 19.5997 7.88852L18.1877 6.47652L19.6036 5.06062L19.6036 5.06061C19.7357 4.92844 19.8018 4.86235 19.8226 4.78471C19.8363 4.73384 19.8363 4.68028 19.8226 4.62942C19.8018 4.55177 19.7357 4.48569 19.6036 4.35351L19.6036 4.35351C19.4714 4.22134 19.4053 4.15525 19.3276 4.13444C19.2768 4.12081 19.2232 4.12081 19.1724 4.13444C19.0947 4.15525 19.0286 4.22134 18.8965 4.35351L17.4805 5.76941L16.0607 4.34953C15.9285 4.21735 15.8624 4.15127 15.7848 4.13046C15.7339 4.11683 15.6803 4.11683 15.6295 4.13046C15.5518 4.15127 15.4857 4.21735 15.3536 4.34953C15.2214 4.4817 15.1553 4.54779 15.1345 4.62544C15.1209 4.6763 15.1209 4.72986 15.1345 4.78073Z" fill="#E31E24"/>
<path d="M15.3536 5.05664L16.0607 4.34953L16.0607 4.34953L15.3536 5.05664ZM15.1345 4.78073L16.1004 4.52191L16.1004 4.52191L15.1345 4.78073ZM16.7734 6.47652L17.4805 7.18363L18.1877 6.47652L17.4805 5.76941L16.7734 6.47652ZM15.3575 7.8925L14.6504 7.18539L14.6504 7.18539L15.3575 7.8925ZM15.1384 8.1684L14.1725 7.90959L14.1725 7.90959L15.1384 8.1684ZM15.1384 8.3237L16.1043 8.06488L16.1043 8.06488L15.1384 8.3237ZM15.3575 8.5996L14.6504 9.30671L14.6504 9.30671L15.3575 8.5996ZM15.6334 8.81867L15.8922 7.85275L15.8922 7.85274L15.6334 8.81867ZM15.7887 8.81867L15.5298 7.85274L15.5298 7.85275L15.7887 8.81867ZM16.0646 8.5996L16.7717 9.30671L16.7717 9.30671L16.0646 8.5996ZM17.4805 7.18363L18.1877 6.47652L17.4805 5.76941L16.7734 6.47652L17.4805 7.18363ZM18.8925 8.59563L18.1854 9.30273L18.1854 9.30274L18.8925 8.59563ZM19.1685 8.81469L19.4273 7.84876L19.4273 7.84876L19.1685 8.81469ZM19.3237 8.81469L19.0649 7.84876L19.0649 7.84876L19.3237 8.81469ZM19.8187 8.31971L20.7846 8.57854L20.7846 8.57853L19.8187 8.31971ZM19.8187 8.16442L20.7846 7.90561L20.7846 7.9056L19.8187 8.16442ZM18.1877 6.47652L17.4805 5.76941L16.7734 6.47652L17.4805 7.18363L18.1877 6.47652ZM19.6036 5.06062L20.3107 5.76772L20.3498 5.72856L20.3844 5.68531L19.6036 5.06062ZM19.6036 5.06061L18.8965 4.35351L18.8573 4.39267L18.8227 4.43592L19.6036 5.06061ZM19.8226 4.78471L18.8567 4.52589L18.8567 4.52589L19.8226 4.78471ZM19.8226 4.62942L18.8567 4.88824L18.8567 4.88824L19.8226 4.62942ZM19.6036 4.35351L18.8345 4.99272L18.8639 5.02809L18.8965 5.06062L19.6036 4.35351ZM19.6036 4.35351L20.3726 3.71431L20.3432 3.67893L20.3107 3.6464L19.6036 4.35351ZM19.3276 4.13444L19.0688 5.10037L19.0688 5.10037L19.3276 4.13444ZM19.1724 4.13444L18.9135 3.16852L18.9135 3.16852L19.1724 4.13444ZM18.8965 4.35351L19.6036 5.06062L19.6036 5.06062L18.8965 4.35351ZM17.4805 5.76941L16.7734 6.47652L17.4805 7.18363L18.1877 6.47652L17.4805 5.76941ZM16.0607 4.34953L16.7678 3.64242L16.7678 3.64242L16.0607 4.34953ZM15.7848 4.13046L15.5259 5.09639L15.5259 5.09639L15.7848 4.13046ZM15.6295 4.13046L15.8883 5.09639L15.8883 5.09639L15.6295 4.13046ZM15.3536 4.34953L14.6465 3.64242L14.6465 3.64242L15.3536 4.34953ZM15.1345 4.62544L16.1004 4.88426L16.1004 4.88426L15.1345 4.62544ZM16.0607 4.34953C16.0258 4.3147 16.0036 4.29244 15.9858 4.27397C15.9679 4.25545 15.9656 4.25222 15.9703 4.25784C15.9793 4.26858 16.0578 4.36268 16.1004 4.52191L14.1686 5.03955C14.232 5.27642 14.354 5.44239 14.4342 5.53863C14.5056 5.62426 14.5934 5.71067 14.6465 5.76374L16.0607 4.34953ZM17.4805 5.76941L16.0607 4.34953L14.6465 5.76374L16.0663 7.18363L17.4805 5.76941ZM16.0646 8.5996L17.4805 7.18363L16.0663 5.76941L14.6504 7.18539L16.0646 8.5996ZM16.1043 8.42722C16.0617 8.58645 15.9832 8.68055 15.9742 8.69129C15.9695 8.69691 15.9718 8.69368 15.9897 8.67516C16.0075 8.6567 16.0297 8.63444 16.0646 8.5996L14.6504 7.18539C14.5973 7.23846 14.5095 7.32487 14.4381 7.4105C14.3579 7.50674 14.2359 7.67271 14.1725 7.90959L16.1043 8.42722ZM16.1043 8.06488C16.1361 8.18357 16.1361 8.30854 16.1043 8.42722L14.1725 7.90959C14.1134 8.13001 14.1134 8.36209 14.1725 8.58252L16.1043 8.06488ZM16.0646 7.8925C16.0297 7.85767 16.0075 7.8354 15.9897 7.81694C15.9718 7.79842 15.9695 7.79519 15.9742 7.80081C15.9832 7.81155 16.0617 7.90565 16.1043 8.06488L14.1725 8.58252C14.2359 8.81939 14.3579 8.98536 14.4381 9.0816C14.5095 9.16723 14.5973 9.25364 14.6504 9.30671L16.0646 7.8925ZM15.8922 7.85274C16.0514 7.89541 16.1455 7.9739 16.1563 7.98285C16.1619 7.98754 16.1586 7.98527 16.1401 7.96738C16.1217 7.94955 16.0994 7.92733 16.0646 7.8925L14.6504 9.30671C14.7034 9.35979 14.7898 9.44754 14.8755 9.51895C14.9717 9.59919 15.1377 9.72113 15.3746 9.7846L15.8922 7.85274ZM15.5298 7.85275C15.6485 7.82094 15.7735 7.82094 15.8922 7.85275L15.3745 9.7846C15.595 9.84366 15.8271 9.84366 16.0475 9.7846L15.5298 7.85275ZM15.3575 7.8925C15.3226 7.92733 15.3004 7.94955 15.2819 7.96738C15.2634 7.98527 15.2602 7.98754 15.2658 7.98285C15.2765 7.9739 15.3706 7.89541 15.5298 7.85274L16.0475 9.7846C16.2844 9.72113 16.4503 9.59919 16.5466 9.51895C16.6322 9.44754 16.7186 9.35978 16.7717 9.30671L15.3575 7.8925ZM16.7734 6.47652L15.3575 7.8925L16.7717 9.30671L18.1877 7.89073L16.7734 6.47652ZM19.5997 7.88852L18.1877 6.47652L16.7734 7.89073L18.1854 9.30273L19.5997 7.88852ZM19.5997 7.88852L19.5997 7.88852L18.1854 9.30273L18.1854 9.30273L19.5997 7.88852ZM19.4273 7.84876C19.5865 7.89143 19.6806 7.96992 19.6913 7.97887C19.697 7.98355 19.6937 7.98129 19.6752 7.9634C19.6567 7.94557 19.6345 7.92335 19.5997 7.88852L18.1854 9.30274C18.2385 9.35581 18.3249 9.44357 18.4106 9.51497C18.5068 9.59521 18.6728 9.71715 18.9096 9.78062L19.4273 7.84876ZM19.0649 7.84876C19.1836 7.81696 19.3086 7.81696 19.4273 7.84876L18.9096 9.78061C19.1301 9.83968 19.3621 9.83968 19.5826 9.78061L19.0649 7.84876ZM18.8925 7.88852C18.8577 7.92335 18.8355 7.94556 18.817 7.9634C18.7985 7.98128 18.7952 7.98355 18.8009 7.97887C18.8116 7.96992 18.9057 7.89143 19.0649 7.84876L19.5826 9.78062C19.8194 9.71715 19.9854 9.59521 20.0816 9.51497C20.1673 9.44356 20.2537 9.3558 20.3068 9.30273L18.8925 7.88852ZM18.8528 8.06089C18.8955 7.90167 18.9739 7.80757 18.9829 7.79683C18.9876 7.79121 18.9853 7.79444 18.9674 7.81296C18.9496 7.83142 18.9274 7.85368 18.8925 7.88852L20.3068 9.30273C20.3598 9.24966 20.4476 9.16325 20.519 9.07761C20.5992 8.98138 20.7212 8.81541 20.7846 8.57854L18.8528 8.06089ZM18.8528 8.42324C18.821 8.30455 18.821 8.17959 18.8528 8.0609L20.7846 8.57853C20.8437 8.35811 20.8437 8.12603 20.7846 7.90561L18.8528 8.42324ZM18.8925 8.59562C18.9274 8.63045 18.9496 8.65272 18.9674 8.67118C18.9853 8.6897 18.9876 8.69293 18.9829 8.68731C18.9739 8.67657 18.8955 8.58247 18.8528 8.42324L20.7846 7.9056C20.7212 7.66873 20.5992 7.50276 20.519 7.40652C20.4476 7.32089 20.3598 7.23448 20.3068 7.18141L18.8925 8.59562ZM17.4805 7.18363L18.8925 8.59562L20.3068 7.18141L18.8948 5.76941L17.4805 7.18363ZM18.8965 4.35351L17.4805 5.76941L18.8948 7.18363L20.3107 5.76772L18.8965 4.35351ZM18.8227 4.43592L18.8227 4.43592L20.3844 5.68531L20.3844 5.68531L18.8227 4.43592ZM18.8567 4.52589C18.8994 4.36666 18.9779 4.27256 18.9868 4.26182C18.9915 4.2562 18.9892 4.25943 18.9713 4.27795C18.9535 4.29641 18.9313 4.31867 18.8965 4.35351L20.3107 5.76772C20.3637 5.71465 20.4515 5.62824 20.5229 5.54261C20.6031 5.44637 20.7251 5.2804 20.7885 5.04353L18.8567 4.52589ZM18.8567 4.88824C18.8249 4.76955 18.8249 4.64458 18.8567 4.52589L20.7885 5.04353C20.8476 4.82311 20.8476 4.59102 20.7885 4.37059L18.8567 4.88824ZM18.8965 5.06062C18.9313 5.09545 18.9535 5.11771 18.9713 5.13618C18.9892 5.1547 18.9915 5.15792 18.9868 5.15231C18.9779 5.14157 18.8994 5.04746 18.8567 4.88824L20.7885 4.3706C20.7251 4.13373 20.6031 3.96776 20.5229 3.87152C20.4515 3.78588 20.3637 3.69948 20.3107 3.64641L18.8965 5.06062ZM18.8345 4.99271L18.8345 4.99272L20.3726 3.71431L20.3726 3.71431L18.8345 4.99271ZM19.0688 5.10037C18.9096 5.0577 18.8155 4.97921 18.8048 4.97026C18.7991 4.96558 18.8024 4.96785 18.8209 4.98573C18.8394 5.00357 18.8616 5.02578 18.8964 5.06062L20.3107 3.6464C20.2576 3.59333 20.1712 3.50557 20.0855 3.43417C19.9893 3.35392 19.8233 3.23199 19.5865 3.16852L19.0688 5.10037ZM19.4312 5.10037C19.3125 5.13217 19.1875 5.13217 19.0688 5.10037L19.5865 3.16852C19.366 3.10946 19.134 3.10946 18.9135 3.16852L19.4312 5.10037ZM19.6036 5.06062C19.6384 5.02578 19.6607 5.00357 19.6791 4.98573C19.6976 4.96785 19.7009 4.96558 19.6952 4.97026C19.6845 4.97921 19.5904 5.0577 19.4312 5.10037L18.9135 3.16852C18.6767 3.23199 18.5107 3.35392 18.4145 3.43417C18.3288 3.50557 18.2424 3.59333 18.1893 3.6464L19.6036 5.06062ZM18.1877 6.47652L19.6036 5.06062L18.1893 3.6464L16.7734 5.06231L18.1877 6.47652ZM15.3536 5.05664L16.7734 6.47652L18.1877 5.06231L16.7678 3.64242L15.3536 5.05664ZM15.5259 5.09639C15.3667 5.05372 15.2726 4.97523 15.2619 4.96628C15.2563 4.9616 15.2595 4.96387 15.278 4.98175C15.2965 4.99959 15.3187 5.0218 15.3536 5.05664L16.7678 3.64242C16.7147 3.58935 16.6283 3.50159 16.5427 3.43019C16.4464 3.34994 16.2804 3.22801 16.0436 3.16454L15.5259 5.09639ZM15.8883 5.09639C15.7696 5.12819 15.6446 5.12819 15.5259 5.09639L16.0436 3.16454C15.8232 3.10547 15.5911 3.10547 15.3706 3.16454L15.8883 5.09639ZM16.0607 5.05664C16.0955 5.0218 16.1178 4.99959 16.1362 4.98175C16.1547 4.96387 16.158 4.9616 16.1524 4.96628C16.1416 4.97523 16.0475 5.05372 15.8883 5.09639L15.3706 3.16454C15.1338 3.22801 14.9678 3.34994 14.8716 3.43019C14.7859 3.50159 14.6995 3.58935 14.6465 3.64242L16.0607 5.05664ZM16.1004 4.88426C16.0578 5.04348 15.9793 5.13759 15.9703 5.14833C15.9656 5.15394 15.9679 5.15071 15.9858 5.13219C16.0036 5.11373 16.0258 5.09147 16.0607 5.05664L14.6465 3.64242C14.5934 3.6955 14.5056 3.7819 14.4342 3.86754C14.354 3.96377 14.232 4.12974 14.1686 4.36662L16.1004 4.88426ZM16.1004 4.52191C16.1322 4.6406 16.1322 4.76557 16.1004 4.88426L14.1686 4.36662C14.1095 4.58704 14.1095 4.81912 14.1686 5.03955L16.1004 4.52191Z" fill="#E31E24" mask="url(#path-12-inside-7_2298_2170)"/>
</svg>
