<svg width="24" height="24" viewBox="0 0 24 24" fill="none" xmlns="http://www.w3.org/2000/svg">
<path d="M6.51109 16.2374C6.36999 16.5779 6.03764 16.8 5.669 16.8V16.8C5.30036 16.8 4.96801 16.5779 4.82691 16.2374L1.33214 7.80173C1.17398 7.41996 1.45457 7 1.86781 7V7C2.10472 7 2.31779 7.14413 2.40597 7.36402L5.47675 15.022C5.55527 15.2178 5.59453 15.3157 5.66212 15.3158C5.72971 15.3158 5.76911 15.218 5.84791 15.0223L8.93167 7.36342C9.02009 7.14384 9.23306 7 9.46978 7V7C9.88321 7 10.1639 7.42016 10.0057 7.80211L6.51109 16.2374Z" fill="#0E0E0E"/>
<path d="M11.7863 7.588C11.7863 7.26326 12.0496 7 12.3743 7V7C12.6991 7 12.9623 7.26326 12.9623 7.588V16.212C12.9623 16.5367 12.6991 16.8 12.3743 16.8V16.8C12.0496 16.8 11.7863 16.5367 11.7863 16.212V7.588Z" fill="#0E0E0E"/>
<path d="M15.5324 9C15.5324 8.05719 15.5324 7.58579 15.8253 7.29289C16.1182 7 16.5896 7 17.5324 7H18.8784C21.6504 7 23.0364 8.05467 23.0364 10.164C23.0364 12.2733 21.6504 13.328 18.8784 13.328H16.9084C16.8142 13.328 16.767 13.328 16.7377 13.3573C16.7084 13.3866 16.7084 13.4337 16.7084 13.528V16.212C16.7084 16.5367 16.4452 16.8 16.1204 16.8V16.8C15.7957 16.8 15.5324 16.5367 15.5324 16.212V9ZM21.8464 10.164C21.8464 9.76267 21.7718 9.42667 21.6224 9.156C21.4731 8.876 21.2584 8.666 20.9784 8.526C20.7078 8.37667 20.4091 8.274 20.0824 8.218C19.7558 8.15267 19.3731 8.12 18.9344 8.12H17.3084C17.0256 8.12 16.8842 8.12 16.7963 8.20787C16.7084 8.29574 16.7084 8.43716 16.7084 8.72V12.008C16.7084 12.1023 16.7084 12.1494 16.7377 12.1787C16.767 12.208 16.8142 12.208 16.9084 12.208H18.9344C19.8398 12.208 20.5491 12.0587 21.0624 11.76C21.5851 11.4613 21.8464 10.9293 21.8464 10.164Z" fill="#0E0E0E"/>
</svg>
