<svg width="24" height="24" viewBox="0 0 24 24" fill="none" xmlns="http://www.w3.org/2000/svg">
<mask id="path-1-inside-1_1603_3300" fill="white">
<path d="M7 17H8V22.5C8 22.7761 7.77614 23 7.5 23V23C7.22386 23 7 22.7761 7 22.5V17Z"/>
</mask>
<path d="M7 17H8V22.5C8 22.7761 7.77614 23 7.5 23V23C7.22386 23 7 22.7761 7 22.5V17Z" fill="#0E0E0E"/>
<path d="M7 17V16H6V17H7ZM8 17H9V16H8V17ZM7 18H8V16H7V18ZM7 17V22.5H9V17H7ZM8 22.5V17H6V22.5H8ZM7.5 22C7.77614 22 8 22.2239 8 22.5H6C6 23.3284 6.67157 24 7.5 24V22ZM7 22.5C7 22.2239 7.22386 22 7.5 22V24C8.32843 24 9 23.3284 9 22.5H7Z" fill="#0E0E0E" mask="url(#path-1-inside-1_1603_3300)"/>
<mask id="path-3-inside-2_1603_3300" fill="white">
<path d="M17 17H18V22.5C18 22.7761 17.7761 23 17.5 23V23C17.2239 23 17 22.7761 17 22.5V17Z"/>
</mask>
<path d="M17 17H18V22.5C18 22.7761 17.7761 23 17.5 23V23C17.2239 23 17 22.7761 17 22.5V17Z" fill="#0E0E0E"/>
<path d="M17 17V16H16V17H17ZM18 17H19V16H18V17ZM17 18H18V16H17V18ZM17 17V22.5H19V17H17ZM18 22.5V17H16V22.5H18ZM17.5 22C17.7761 22 18 22.2239 18 22.5H16C16 23.3284 16.6716 24 17.5 24V22ZM17 22.5C17 22.2239 17.2239 22 17.5 22V24C18.3284 24 19 23.3284 19 22.5H17Z" fill="#0E0E0E" mask="url(#path-3-inside-2_1603_3300)"/>
<mask id="path-5-inside-3_1603_3300" fill="white">
<path d="M16 12H17V15.5C17 15.7761 16.7761 16 16.5 16V16C16.2239 16 16 15.7761 16 15.5V12Z"/>
</mask>
<path d="M16 12H17V15.5C17 15.7761 16.7761 16 16.5 16V16C16.2239 16 16 15.7761 16 15.5V12Z" fill="#0E0E0E"/>
<path d="M16 12V11H15V12H16ZM17 12H18V11H17V12ZM16 13H17V11H16V13ZM16 12V15.5H18V12H16ZM17 15.5V12H15V15.5H17ZM16.5 15C16.7761 15 17 15.2239 17 15.5H15C15 16.3284 15.6716 17 16.5 17V15ZM16 15.5C16 15.2239 16.2239 15 16.5 15V17C17.3284 17 18 16.3284 18 15.5H16Z" fill="#0E0E0E" mask="url(#path-5-inside-3_1603_3300)"/>
<mask id="path-7-inside-4_1603_3300" fill="white">
<path d="M8 12H9V15.5C9 15.7761 8.77614 16 8.5 16V16C8.22386 16 8 15.7761 8 15.5V12Z"/>
</mask>
<path d="M8 12H9V15.5C9 15.7761 8.77614 16 8.5 16V16C8.22386 16 8 15.7761 8 15.5V12Z" fill="#0E0E0E"/>
<path d="M8 12V11H7V12H8ZM9 12H10V11H9V12ZM8 13H9V11H8V13ZM8 12V15.5H10V12H8ZM9 15.5V12H7V15.5H9ZM8.5 15C8.77614 15 9 15.2239 9 15.5H7C7 16.3284 7.67157 17 8.5 17V15ZM8 15.5C8 15.2239 8.22386 15 8.5 15V17C9.32843 17 10 16.3284 10 15.5H8Z" fill="#0E0E0E" mask="url(#path-7-inside-4_1603_3300)"/>
<rect x="5.5" y="15.5" width="14" height="2" rx="0.7" stroke="#0E0E0E"/>
<path d="M11.0486 1.5H13.9514C14.9257 1.5 15.6081 1.50099 16.1278 1.56847C16.6333 1.63411 16.9165 1.75549 17.1268 1.949C17.3371 2.14251 17.4816 2.41467 17.589 2.91295C17.6994 3.42523 17.757 4.10518 17.8379 5.07612L18.2851 10.4422C18.337 11.065 18.3705 11.4803 18.3536 11.7902C18.3375 12.0856 18.2783 12.2007 18.211 12.274C18.1436 12.3472 18.0338 12.4157 17.7407 12.4563C17.4333 12.4989 17.0166 12.5 16.3917 12.5H8.60832C7.98335 12.5 7.56671 12.4989 7.25933 12.4563C6.96624 12.4157 6.85642 12.3472 6.78904 12.274C6.72166 12.2007 6.66252 12.0856 6.64641 11.7902C6.62951 11.4803 6.66298 11.065 6.71488 10.4422L7.16206 5.07612C7.24297 4.10518 7.30062 3.42523 7.41103 2.91295C7.51841 2.41467 7.6629 2.14251 7.87321 1.949C8.08352 1.75549 8.36674 1.63411 8.8722 1.56847C9.39189 1.50099 10.0743 1.5 11.0486 1.5Z" stroke="#0E0E0E"/>
<rect x="10" y="4" width="1" height="1" rx="0.5" fill="#E31E24"/>
<rect x="9" y="9" width="1" height="1" rx="0.5" fill="#E31E24"/>
<rect x="15" y="9" width="1" height="1" rx="0.5" fill="#E31E24"/>
<rect x="14" y="4" width="1" height="1" rx="0.5" fill="#E31E24"/>
<rect x="12" y="7" width="1" height="1" rx="0.5" fill="#E31E24"/>
</svg>
