<svg width="24" height="24" viewBox="0 0 24 24" fill="none" xmlns="http://www.w3.org/2000/svg">
<rect x="1.5" y="11.5" width="21" height="5" rx="0.7" stroke="#0E0E0E"/>
<path d="M11.5535 5.71452L19.0483 6.33909C19.4399 6.37172 19.6982 6.39379 19.8939 6.42925C20.0815 6.46321 20.1621 6.50182 20.2127 6.53878C20.287 6.59299 20.3498 6.6613 20.3977 6.7398C20.4303 6.79333 20.4621 6.8769 20.4804 7.06661C20.4995 7.26464 20.5 7.52387 20.5 7.91681C20.5 8.34035 20.4994 8.62108 20.4781 8.83449C20.4576 9.0398 20.4219 9.1278 20.3863 9.18247C20.3332 9.26381 20.2638 9.33321 20.1825 9.38627C20.1278 9.42194 20.0398 9.4576 19.8345 9.4781C19.6211 9.49942 19.3403 9.5 18.9168 9.5H11.396C10.8182 9.5 10.4349 9.49894 10.1501 9.46077C9.87957 9.42452 9.77355 9.36315 9.70632 9.29626L9.70374 9.29368C9.63685 9.22645 9.57548 9.12043 9.53923 8.84988C9.50106 8.56506 9.5 8.18182 9.5 7.60399C9.5 6.98117 9.50112 6.56597 9.54343 6.25954C9.58378 5.9673 9.6519 5.85762 9.72461 5.79035L9.72744 5.78774C9.80052 5.72087 9.91547 5.6621 10.2101 5.64615C10.5189 5.62944 10.9328 5.6628 11.5535 5.71452Z" stroke="#E31E24"/>
<mask id="path-3-inside-1_1603_3384" fill="white">
<path d="M22 9.5C22 9.22386 22.2239 9 22.5 9V9C22.7761 9 23 9.22386 23 9.5V18.5C23 18.7761 22.7761 19 22.5 19V19C22.2239 19 22 18.7761 22 18.5V9.5Z"/>
</mask>
<path d="M22 9.5C22 9.22386 22.2239 9 22.5 9V9C22.7761 9 23 9.22386 23 9.5V18.5C23 18.7761 22.7761 19 22.5 19V19C22.2239 19 22 18.7761 22 18.5V9.5Z" fill="#0E0E0E"/>
<path d="M22 9.5V18.5H24V9.5H22ZM23 18.5V9.5H21V18.5H23ZM22.5 18C22.7761 18 23 18.2239 23 18.5H21C21 19.3284 21.6716 20 22.5 20V18ZM22 18.5C22 18.2239 22.2239 18 22.5 18V20C23.3284 20 24 19.3284 24 18.5H22ZM22.5 10C22.2239 10 22 9.77614 22 9.5H24C24 8.67157 23.3284 8 22.5 8V10ZM22.5 8C21.6716 8 21 8.67157 21 9.5H23C23 9.77614 22.7761 10 22.5 10V8Z" fill="#0E0E0E" mask="url(#path-3-inside-1_1603_3384)"/>
<mask id="path-5-inside-2_1603_3384" fill="white">
<path d="M1 6.5C1 6.22386 1.22386 6 1.5 6V6C1.77614 6 2 6.22386 2 6.5V18.5C2 18.7761 1.77614 19 1.5 19V19C1.22386 19 1 18.7761 1 18.5V6.5Z"/>
</mask>
<path d="M1 6.5C1 6.22386 1.22386 6 1.5 6V6C1.77614 6 2 6.22386 2 6.5V18.5C2 18.7761 1.77614 19 1.5 19V19C1.22386 19 1 18.7761 1 18.5V6.5Z" fill="#0E0E0E"/>
<path d="M1 6.5V18.5H3V6.5H1ZM2 18.5V6.5H0V18.5H2ZM1.5 18C1.77614 18 2 18.2239 2 18.5H0C0 19.3284 0.671573 20 1.5 20V18ZM1 18.5C1 18.2239 1.22386 18 1.5 18V20C2.32843 20 3 19.3284 3 18.5H1ZM1.5 7C1.22386 7 1 6.77614 1 6.5H3C3 5.67157 2.32843 5 1.5 5V7ZM1.5 5C0.671572 5 0 5.67157 0 6.5H2C2 6.77614 1.77614 7 1.5 7V5Z" fill="#0E0E0E" mask="url(#path-5-inside-2_1603_3384)"/>
<circle cx="5.5" cy="7.5" r="2" stroke="#0E0E0E"/>
</svg>
