<svg width="24" height="24" viewBox="0 0 24 24" fill="none" xmlns="http://www.w3.org/2000/svg">
<path d="M14.4141 8.54688C14.4141 7.71845 15.0857 7.04688 15.9141 7.04688C16.7425 7.04688 17.4141 7.71845 17.4141 8.54688C17.4141 9.3753 16.7425 10.0469 15.9141 10.0469C15.0857 10.0469 14.4141 9.3753 14.4141 8.54688Z" fill="#E31E24"/>
<path fill-rule="evenodd" clip-rule="evenodd" d="M7.6819 4.2053C10.831 3.93157 13.9978 3.93157 17.1469 4.2053L18.6571 4.33659C20.1022 4.46221 21.2729 5.56186 21.4886 6.99625C21.9422 10.013 21.9422 13.0806 21.4886 16.0973C21.2729 17.5317 20.1022 18.6313 18.6571 18.757L17.1469 18.8882C13.9978 19.162 10.831 19.162 7.6819 18.8882L6.17167 18.757C4.7266 18.6313 3.55593 17.5317 3.34023 16.0973C2.88659 13.0806 2.88659 10.013 3.34023 6.99625C3.55593 5.56186 4.7266 4.46221 6.17167 4.33659L7.6819 4.2053ZM17.017 5.69967C13.9544 5.43344 10.8744 5.43344 7.8118 5.69967L6.30157 5.83096C5.54724 5.89653 4.93615 6.47055 4.82356 7.2193C4.56602 8.93192 4.46223 10.6618 4.51217 12.3883L8.38404 8.51643C8.53009 8.37037 8.72993 8.29102 8.9364 8.29708C9.14287 8.30315 9.33769 8.3941 9.47492 8.54849L13.1464 12.6789L15.6772 11.8353C15.9603 11.7409 16.2723 11.8233 16.4719 12.0451L19.991 15.9552C19.9964 15.9285 20.0011 15.9015 20.0052 15.8742C20.4366 13.0054 20.4366 10.0882 20.0052 7.2193C19.8926 6.47055 19.2815 5.89653 18.5272 5.83096L17.017 5.69967ZM19.0346 17.1348L15.6855 13.4137L13.1516 14.2583C12.8669 14.3532 12.5532 14.2693 12.3538 14.0451L8.88225 10.1396L4.63857 14.3833C4.68735 14.8814 4.74901 15.3785 4.82356 15.8742C4.93615 16.623 5.54724 17.197 6.30157 17.2626L7.81181 17.3939C10.8744 17.6601 13.9544 17.6601 17.017 17.3939L18.5272 17.2626C18.7059 17.2471 18.8766 17.203 19.0346 17.1348Z" fill="#0E0E0E"/>
</svg>
