<svg width="24" height="24" viewBox="0 0 24 24" fill="none" xmlns="http://www.w3.org/2000/svg">
<path d="M15.9867 11.748C13.7862 10.5426 11.6792 9.43438 9.52539 8.27734V15.199C11.7918 13.9361 14.1807 12.7795 15.996 11.748H15.9867Z" fill="white"/>
<path d="M15.9867 11.748C13.7862 10.5426 9.52539 8.27734 9.52539 8.27734L15.2061 12.1912C15.2061 12.1912 14.1713 12.7795 15.9867 11.748Z" fill="#E8E0E0"/>
<path d="M9.93969 20.6179C5.369 20.5316 3.80789 20.454 2.84834 20.2514C2.19913 20.1167 1.63498 19.8178 1.22132 19.3842C0.901621 19.056 0.647372 18.5553 0.450118 17.8606C0.280916 17.2819 0.215016 16.8003 0.121064 15.6241C-0.0227579 12.9696 -0.0570436 10.7992 0.121064 8.37426C0.268003 7.0351 0.339246 5.44537 1.31528 4.51791C1.77613 4.08385 2.31223 3.80452 2.91424 3.68904C3.85464 3.50602 7.86118 3.36133 12.0089 3.36133C16.1472 3.36133 20.1626 3.50602 21.1039 3.68904C21.856 3.83373 22.5613 4.26733 22.9754 4.82646C23.8659 6.26237 23.8815 8.04791 23.9719 9.44457C24.0093 10.11 24.0093 13.8888 23.9719 14.5543C23.8312 16.7615 23.7181 17.5425 23.3984 18.3522C23.2007 18.8634 23.0319 19.1331 22.7398 19.4321C22.2817 19.8921 21.6977 20.1982 21.0656 20.3093C17.1103 20.6142 13.7516 20.6804 9.93969 20.6179ZM15.9967 11.7486C13.7962 10.5432 11.6892 9.4254 9.53539 8.26836V15.1905C11.8018 13.9276 14.1911 12.7706 16.006 11.739L15.9967 11.7486Z" fill="#CD201F"/>
</svg>
