<?xml version="1.0" standalone="no"?>
<!DOCTYPE svg PUBLIC "-//W3C//DTD SVG 20010904//EN"
 "http://www.w3.org/TR/2001/REC-SVG-20010904/DTD/svg10.dtd">
<svg version="1.0" xmlns="http://www.w3.org/2000/svg"
 width="512.000000pt" height="512.000000pt" viewBox="0 0 512.000000 512.000000"
 preserveAspectRatio="xMidYMid meet">
<metadata>
Created by potrace 1.16, written by Peter Selinger 2001-2019
</metadata>
<g transform="translate(0.000000,512.000000) scale(0.100000,-0.100000)"
fill="#000000" stroke="none">
<path d="M3442 4529 c18 -4 13 -7 -23 -13 -25 -3 -54 -4 -65 0 -13 4 -15 3 -6
-3 15 -11 -103 -47 -120 -37 -6 4 -8 2 -4 -4 8 -13 -29 -26 -45 -16 -7 4 -9 3
-6 -3 9 -14 -48 -37 -64 -27 -7 4 -10 3 -6 -3 4 -6 -5 -15 -19 -22 -17 -8 -23
-8 -19 0 4 6 -7 3 -24 -5 -17 -9 -31 -19 -31 -22 0 -2 9 0 20 6 11 6 20 8 20
6 0 -3 -14 -13 -31 -22 -20 -10 -28 -11 -24 -3 10 15 2 11 -77 -43 -32 -21
-58 -41 -58 -45 0 -3 7 0 15 7 8 7 15 10 15 7 0 -2 -17 -17 -37 -33 -24 -18
-33 -21 -23 -9 8 11 -25 -21 -75 -71 -64 -64 -71 -70 -25 -20 l65 71 -71 -68
c-39 -38 -71 -74 -71 -81 0 -7 -13 -29 -28 -49 -22 -27 -32 -33 -42 -25 -7 5
-10 14 -7 19 3 5 2 8 -3 7 -5 -2 -49 35 -99 82 -49 47 -80 77 -68 68 11 -10
24 -18 28 -18 8 0 -28 31 -89 76 -25 18 -34 22 -25 10 15 -19 14 -19 -12 -2
-26 17 -41 35 -16 20 7 -4 8 -3 4 5 -4 6 -11 9 -15 6 -13 -7 -232 110 -224
120 5 4 2 5 -4 1 -7 -4 -53 7 -103 23 -169 57 -277 74 -465 75 -138 0 -189 -4
-272 -22 -56 -12 -110 -19 -120 -16 -13 4 -15 3 -5 -4 11 -7 8 -11 -13 -16
-14 -4 -31 -4 -37 0 -6 4 -8 3 -4 -4 8 -13 -29 -26 -45 -16 -7 4 -9 3 -6 -3 3
-5 -23 -24 -59 -41 -36 -18 -62 -27 -58 -21 9 16 -66 -27 -98 -55 -13 -11 -18
-17 -11 -12 30 20 10 -4 -24 -30 -35 -26 -37 -26 -18 -3 11 13 -20 -17 -70
-67 -51 -51 -64 -62 -30 -25 l60 66 -68 -65 c-37 -35 -67 -72 -67 -81 0 -9
-10 -24 -22 -35 -22 -19 -23 -19 -8 1 12 17 12 18 0 7 -8 -7 -15 -20 -15 -30
0 -9 -7 -17 -15 -17 -8 0 -15 -9 -15 -20 0 -11 -6 -19 -13 -17 -8 1 -11 -1 -8
-6 3 -5 -2 -18 -10 -28 -9 -10 -12 -13 -8 -5 4 9 3 12 -4 7 -6 -4 -8 -14 -5
-23 4 -10 2 -14 -4 -10 -6 4 -10 -1 -9 -11 0 -9 -5 -16 -12 -14 -8 1 -11 -2
-7 -8 8 -13 -14 -52 -25 -45 -6 4 -7 -1 -3 -11 4 -12 3 -15 -5 -10 -8 5 -10 1
-5 -10 4 -12 3 -15 -5 -10 -8 5 -10 1 -5 -10 4 -12 3 -15 -5 -10 -8 5 -10 1
-5 -10 4 -12 3 -15 -5 -10 -8 5 -10 1 -5 -10 4 -12 3 -15 -5 -10 -8 5 -10 1
-5 -10 5 -13 3 -15 -7 -9 -9 5 -11 4 -6 -4 8 -13 -2 -53 -12 -47 -4 2 -7 -6
-8 -17 -1 -12 -13 -65 -27 -117 -15 -52 -27 -107 -27 -122 0 -16 -5 -28 -11
-28 -5 0 -8 -3 -6 -7 3 -5 7 -79 9 -165 1 -87 6 -158 11 -158 4 0 7 -8 7 -17
0 -15 -2 -16 -10 -3 -5 8 -10 11 -10 6 0 -5 6 -17 14 -25 19 -23 31 -75 14
-66 -7 4 -5 0 6 -9 12 -9 17 -23 13 -36 -3 -11 -1 -18 3 -15 11 7 23 -31 15
-45 -3 -5 0 -20 7 -32 7 -13 11 -26 10 -30 -1 -5 4 -7 11 -5 7 1 12 -7 11 -20
0 -12 3 -20 7 -18 10 7 20 -25 12 -37 -4 -7 -1 -8 7 -3 10 6 12 4 7 -9 -5 -11
-3 -15 5 -10 8 5 9 2 5 -9 -4 -10 -2 -16 5 -14 7 1 13 -5 14 -13 0 -8 2 -21 2
-28 1 -7 7 -10 14 -6 8 5 9 2 5 -9 -3 -9 -1 -19 5 -23 7 -5 8 -2 3 6 -6 9 -4
11 4 6 7 -5 10 -14 7 -22 -3 -8 0 -13 7 -11 7 1 12 -6 12 -15 0 -9 4 -20 9
-25 5 -5 6 -2 1 6 -6 10 -4 12 4 7 7 -5 10 -14 7 -22 -3 -7 0 -16 6 -20 7 -5
8 -2 3 6 -6 9 -4 11 4 6 7 -5 10 -14 7 -22 -3 -7 0 -16 6 -20 7 -5 8 -2 3 7
-8 12 -6 12 9 0 9 -8 15 -20 12 -27 -3 -7 15 -29 39 -49 24 -19 42 -41 39 -48
-2 -7 6 -22 18 -33 l23 -19 -20 25 -20 25 27 -24 c15 -13 25 -27 23 -32 -3 -4
5 -18 17 -31 13 -13 19 -17 13 -8 -5 9 3 3 18 -12 15 -16 25 -34 21 -40 -4 -6
-3 -8 3 -5 12 8 58 -40 67 -69 3 -11 21 -34 39 -50 l32 -29 -30 35 c-29 34
-28 34 12 -4 24 -22 41 -41 39 -43 -2 -2 17 -25 43 -50 25 -26 33 -36 16 -22
l-30 24 24 -27 c13 -15 28 -25 32 -22 8 5 54 -51 54 -67 0 -5 5 -9 10 -9 15
-1 155 -142 149 -152 -3 -4 3 -11 13 -15 20 -8 43 -35 37 -44 -2 -3 8 -11 22
-18 15 -6 22 -16 18 -23 -4 -6 -3 -8 3 -5 13 8 36 -17 25 -27 -4 -4 0 -6 8 -4
8 2 14 -3 12 -10 -1 -8 2 -11 6 -8 12 7 44 -28 35 -38 -5 -4 -1 -6 7 -4 8 2
14 -3 13 -9 -2 -7 1 -12 5 -10 11 3 40 -25 189 -178 62 -64 65 -66 13 -10
l-65 71 79 -78 c43 -43 82 -78 85 -78 12 0 101 -95 101 -108 0 -6 6 -9 13 -6
7 2 26 -10 42 -28 l30 -33 -35 30 -35 30 29 -32 c16 -18 32 -30 36 -28 4 3 25
-12 47 -33 22 -20 30 -30 19 -22 -21 15 -21 15 -3 -7 11 -12 24 -19 31 -17 7
3 19 -3 27 -13 13 -17 13 -17 -6 -3 -19 14 -19 14 -6 -2 7 -10 17 -16 21 -13
4 2 23 -10 42 -28 19 -17 23 -23 9 -12 l-26 20 24 -27 c13 -15 29 -24 35 -22
7 3 21 -6 32 -18 l19 -23 -25 20 -25 20 18 -22 c11 -12 24 -19 31 -17 7 3 19
-3 27 -13 13 -17 13 -17 -6 -3 -18 14 -19 14 -7 -2 8 -9 19 -15 26 -12 7 3 19
-3 27 -13 13 -17 13 -17 -6 -3 -18 14 -19 14 -7 -2 8 -9 19 -15 26 -12 7 3 19
-3 27 -13 13 -17 13 -17 -6 -3 -18 14 -19 14 -7 -2 8 -9 20 -14 27 -12 8 3 21
-6 31 -21 18 -28 62 -58 49 -33 -3 7 3 2 15 -12 12 -14 29 -25 39 -25 9 0 15
-6 13 -13 -1 -8 2 -11 8 -7 12 7 78 -14 101 -32 22 -19 108 -17 115 2 4 8 16
15 28 14 20 0 20 -1 1 -9 -18 -8 -18 -9 -2 -9 10 -1 20 5 23 13 3 8 20 18 37
22 18 3 57 17 86 31 30 13 61 21 68 18 9 -3 11 0 7 7 -5 8 -2 9 10 5 11 -5 15
-3 10 5 -5 8 -2 9 10 5 10 -4 15 -3 11 3 -3 5 14 19 37 30 40 19 37 14 -9 -18
-10 -7 1 -3 24 9 23 12 40 26 38 30 -3 4 16 20 42 35 27 15 95 59 153 97 58
39 98 62 90 52 -12 -15 -7 -14 20 5 68 47 180 132 180 137 0 3 -8 -1 -17 -8
-16 -13 -17 -12 -4 4 8 10 20 16 27 13 7 -3 18 3 26 12 12 15 11 16 -4 3 -10
-7 -18 -11 -18 -8 0 2 17 17 38 33 33 25 35 25 17 4 -11 -13 17 5 63 40 45 34
86 68 89 74 4 6 -4 2 -18 -9 l-24 -20 19 23 c11 12 25 21 32 18 7 -3 20 5 31
17 l18 22 -25 -20 -25 -20 19 23 c11 12 25 21 32 18 7 -3 20 5 31 17 l18 22
-25 -20 -25 -20 19 23 c11 12 26 20 33 18 8 -3 48 29 95 77 44 45 85 81 89 80
5 -2 5 5 2 14 -4 9 -2 14 3 11 5 -4 9 15 9 42 0 27 -4 46 -9 42 -5 -3 -7 2 -3
11 4 10 -6 26 -29 46 -28 25 -43 31 -77 30 l-42 -2 48 -6 c34 -5 55 -15 75
-36 l27 -29 -28 24 c-19 16 -45 26 -82 30 -29 3 -53 3 -52 0 1 -3 -2 -7 -7
-10 -5 -3 -22 -18 -38 -33 -15 -16 -32 -26 -37 -23 -4 3 -17 -4 -27 -17 l-19
-22 23 19 c12 11 22 17 22 13 0 -3 -19 -20 -42 -38 -25 -19 -37 -25 -28 -13 8
11 -3 1 -25 -21 -22 -23 -51 -50 -65 -61 -24 -19 -25 -19 -11 1 8 11 -3 2 -24
-20 -20 -22 -32 -31 -25 -20 7 11 -2 4 -21 -16 -19 -19 -45 -44 -59 -55 -25
-19 -25 -19 -11 1 8 11 -2 2 -21 -19 -19 -22 -39 -36 -45 -33 -6 4 -17 -1 -24
-11 -13 -16 -13 -16 6 -2 19 14 19 14 6 -3 -8 -10 -20 -16 -27 -13 -7 3 -18
-3 -26 -12 -12 -15 -11 -16 5 -3 9 7 17 11 17 8 0 -3 -15 -16 -32 -28 -19 -13
-29 -17 -23 -8 6 8 -1 3 -15 -11 -14 -14 -20 -19 -15 -11 6 9 -4 5 -22 -8 -18
-12 -33 -25 -33 -28 0 -3 7 0 15 7 8 7 15 10 15 7 0 -3 -15 -16 -32 -28 -27
-19 -30 -20 -18 -4 15 18 14 18 -12 1 -15 -10 -34 -29 -43 -42 -9 -15 -22 -23
-30 -20 -8 3 -17 0 -21 -6 -5 -7 -2 -8 6 -3 9 6 11 4 6 -4 -5 -7 -14 -10 -22
-7 -7 3 -16 0 -20 -6 -4 -7 -3 -8 4 -4 7 4 12 5 12 2 0 -3 -10 -10 -21 -17
-17 -9 -20 -8 -14 3 4 7 -3 2 -15 -12 -12 -14 -19 -19 -15 -12 6 11 3 12 -14
3 -11 -7 -21 -14 -21 -17 0 -3 5 -2 10 1 6 3 10 4 10 1 0 -3 -10 -10 -21 -17
-16 -8 -20 -8 -14 1 6 9 2 9 -14 1 -11 -7 -21 -14 -21 -17 0 -3 5 -2 10 1 6 3
10 4 10 1 0 -3 -10 -10 -21 -17 -16 -8 -20 -8 -14 1 6 9 2 9 -14 1 -22 -12
-30 -27 -8 -16 6 4 3 -1 -8 -9 -11 -9 -25 -14 -33 -11 -8 3 -10 0 -6 -7 5 -8
2 -9 -10 -5 -11 5 -15 3 -10 -5 5 -8 2 -9 -10 -5 -11 5 -15 3 -10 -5 5 -8 2
-9 -10 -5 -9 4 -15 3 -12 -2 8 -12 -50 -35 -65 -25 -7 4 -10 3 -5 -4 8 -13
-81 -42 -129 -42 -28 0 -125 51 -125 65 0 4 13 -3 30 -15 17 -12 30 -19 30
-17 0 3 -30 27 -67 53 -38 26 -84 59 -103 73 -26 20 -31 21 -20 6 10 -13 2
-10 -22 9 -21 16 -38 31 -38 33 0 3 8 -1 18 -8 15 -13 16 -12 3 3 -7 10 -17
15 -22 13 -4 -3 -21 7 -36 22 -16 15 -20 21 -8 13 12 -8 1 4 -24 27 -25 23
-49 39 -53 37 -4 -3 -20 8 -35 23 -24 23 -24 24 -3 8 l25 -20 -24 27 c-13 15
-28 25 -32 22 -5 -3 -23 10 -42 28 -30 30 -30 31 -2 8 l30 -25 -29 32 c-16 18
-33 30 -37 27 -4 -2 -32 19 -61 48 -42 41 -44 44 -9 13 l46 -40 -44 47 c-24
26 -48 45 -52 42 -5 -2 -52 39 -107 93 -90 90 -91 91 -13 18 l86 -80 -84 87
c-47 48 -88 85 -92 82 -9 -5 -270 257 -264 266 2 3 -35 44 -83 91 l-87 84 80
-86 c66 -70 61 -66 -23 18 -56 57 -101 107 -98 112 3 4 -16 28 -42 52 l-47 44
40 -45 c35 -41 34 -40 -13 7 -29 29 -51 57 -48 61 3 5 -11 24 -32 43 l-37 34
30 -35 c23 -27 19 -25 -13 7 -24 24 -41 47 -38 51 3 5 -9 22 -27 38 l-32 29
25 -30 c17 -21 12 -18 -13 7 -21 21 -36 42 -33 47 3 4 -4 17 -17 27 -22 19
-22 19 -7 -2 8 -11 2 -7 -13 8 -15 16 -25 33 -23 37 3 5 -4 17 -17 27 -22 19
-22 19 -7 -1 10 -14 7 -13 -8 3 -12 13 -20 27 -17 32 3 4 -3 14 -13 21 -16 13
-16 12 -2 -6 15 -20 15 -20 -8 -1 -12 11 -21 25 -18 32 3 7 -3 18 -12 26 -16
12 -16 11 -2 -7 14 -19 14 -19 -3 -6 -10 8 -16 20 -13 27 3 7 0 16 -6 20 -7 5
-8 2 -3 -7 8 -12 6 -12 -9 0 -9 8 -15 20 -12 27 3 7 0 16 -6 20 -7 5 -8 2 -3
-6 6 -9 4 -11 -4 -6 -7 5 -10 14 -7 22 3 7 0 16 -6 20 -7 5 -8 2 -3 -6 6 -9 4
-11 -4 -6 -7 5 -10 14 -7 22 3 8 0 13 -7 11 -7 -1 -11 6 -11 15 1 10 -3 15 -9
11 -6 -4 -8 0 -4 11 5 11 3 15 -5 10 -8 -5 -9 -2 -5 10 4 10 3 15 -3 11 -12
-8 -63 93 -56 112 3 8 2 11 -3 8 -12 -7 -24 31 -15 46 4 8 3 9 -4 5 -7 -4 -12
-6 -12 -4 0 2 -9 35 -20 73 -45 154 -44 344 1 491 29 96 60 165 70 158 5 -3 6
3 2 12 -4 12 -3 15 5 10 8 -5 10 -1 5 10 -4 12 -3 15 5 10 8 -5 10 -1 5 10 -4
11 -2 15 4 11 6 -4 10 1 9 11 0 9 5 16 12 14 8 -1 11 2 7 7 -5 9 41 91 52 91
2 0 1 -5 -3 -12 -4 -7 -3 -8 4 -4 6 4 9 12 7 19 -3 7 8 26 23 42 15 17 23 24
17 15 -9 -13 -8 -13 7 -1 10 7 15 18 12 23 -8 12 122 142 134 134 5 -3 16 2
23 12 13 15 12 16 -3 3 -10 -7 -18 -11 -18 -8 0 3 15 16 32 28 27 19 30 20 18
4 -15 -18 -14 -18 12 -1 28 18 39 33 16 21 -7 -4 -4 1 7 10 46 40 297 142 280
115 -4 -6 1 -10 10 -10 9 0 14 4 11 9 -3 5 1 11 9 15 8 3 15 1 15 -4 0 -16 30
-11 36 5 4 8 14 15 23 15 14 0 14 -2 1 -10 -12 -7 -8 -10 15 -10 20 0 26 3 17
9 -22 14 23 21 135 21 77 0 105 -4 117 -15 8 -8 25 -15 38 -14 23 1 23 1 -2 9
-41 13 -7 11 76 -5 42 -8 85 -21 94 -30 18 -17 34 -20 25 -6 -3 6 22 1 55 -11
36 -12 57 -24 53 -30 -4 -7 -1 -8 6 -3 14 8 93 -24 86 -35 -3 -5 2 -11 11 -14
8 -3 12 -2 9 4 -3 6 1 7 9 4 9 -3 13 -10 10 -15 -3 -5 3 -6 12 -2 11 4 15 2
11 -4 -4 -6 0 -10 8 -9 7 0 15 -3 16 -9 2 -12 30 -34 43 -35 6 0 1 7 -10 16
-18 15 -18 15 2 5 12 -6 29 -21 38 -35 9 -14 22 -23 29 -20 7 2 22 -6 33 -18
19 -23 19 -23 -1 -8 -18 14 -19 14 -6 -2 7 -10 18 -15 23 -12 9 6 421 -396
414 -404 -2 -2 50 -55 115 -119 65 -64 116 -120 113 -125 -3 -5 0 -7 7 -6 7 2
17 -6 23 -17 6 -11 71 -78 143 -149 73 -71 130 -133 127 -138 -3 -4 0 -7 7 -6
7 2 13 -2 14 -9 0 -6 4 -15 9 -20 5 -5 6 -2 1 7 -4 8 64 -56 151 -142 87 -87
161 -158 165 -158 4 0 34 -28 66 -63 32 -34 51 -54 43 -43 -9 12 3 6 28 -13
23 -18 42 -35 42 -38 0 -4 -10 2 -22 13 l-23 19 18 -22 c11 -12 25 -19 32 -17
8 3 21 -6 31 -21 16 -25 65 -60 50 -36 -5 8 0 8 18 0 14 -7 23 -16 20 -20 -3
-5 3 -6 12 -2 11 4 15 2 11 -4 -4 -6 3 -8 18 -5 14 2 33 1 42 -3 10 -5 26 -7
36 -6 9 1 17 -3 17 -8 0 -17 105 -14 120 4 7 8 27 15 44 14 30 -1 30 -1 6 -9
l-25 -8 26 -1 c15 -1 29 5 33 14 3 8 15 15 26 15 12 0 55 11 96 25 42 14 80
22 86 19 7 -5 8 -2 3 6 -6 10 -4 12 9 7 11 -5 15 -3 10 5 -5 8 -2 9 10 5 9 -4
15 -3 12 2 -3 5 11 19 31 31 30 18 34 18 22 4 -11 -14 -7 -13 17 3 17 12 37
30 45 40 11 15 9 15 -12 -2 -14 -11 -10 -6 9 12 18 17 48 47 65 65 18 19 25
25 17 14 -14 -20 -14 -20 5 -3 11 10 20 25 20 35 0 9 7 17 15 17 8 0 15 9 15
20 0 11 5 19 11 18 7 -1 11 5 10 15 0 9 4 16 10 15 7 -1 11 5 10 15 0 9 4 16
11 15 8 -2 10 4 6 14 -4 10 -2 14 4 10 6 -4 10 1 9 11 0 9 4 16 11 15 8 -2 10
4 6 14 -4 11 -3 14 5 9 8 -5 10 -1 5 10 -4 12 -3 15 5 10 8 -5 10 -1 5 10 -4
12 -3 15 5 10 8 -5 10 -1 5 10 -5 13 -3 15 7 9 9 -5 11 -4 6 4 -10 16 3 53 16
45 6 -4 8 -2 4 4 -3 6 6 50 21 99 25 81 27 102 28 276 1 103 -2 182 -5 176
-10 -15 -22 53 -14 77 4 14 3 15 -4 6 -7 -11 -11 -8 -16 13 -4 14 -4 31 0 37
4 6 3 8 -4 4 -13 -8 -26 29 -16 45 5 8 3 9 -6 4 -10 -6 -12 -4 -7 9 5 11 3 15
-5 10 -8 -5 -9 -2 -5 10 5 11 3 15 -5 10 -8 -5 -9 -2 -5 10 5 11 3 15 -5 10
-8 -5 -9 -2 -5 10 5 11 3 15 -5 10 -8 -5 -9 -2 -5 9 4 10 2 16 -6 14 -7 -1
-11 6 -11 15 1 10 -3 15 -9 11 -6 -4 -8 0 -4 10 4 10 2 16 -6 14 -7 -1 -12 6
-12 15 0 9 -4 20 -9 25 -5 5 -6 2 -1 -6 6 -10 4 -12 -4 -7 -7 5 -10 14 -7 22
3 7 0 16 -6 20 -7 5 -8 2 -3 -7 8 -12 6 -12 -9 0 -9 8 -15 20 -12 27 3 7 -3
18 -12 26 -15 12 -16 11 -3 -7 7 -11 2 -7 -13 8 -14 16 -24 32 -22 36 3 4 -11
23 -32 42 l-37 34 35 -40 c19 -22 -5 -2 -53 45 -48 46 -87 87 -87 89 0 3 21
-15 48 -39 l47 -45 -44 47 c-24 26 -48 45 -52 43 -4 -3 -15 3 -26 13 -10 9
-12 13 -3 7 13 -9 13 -8 1 7 -7 10 -17 16 -21 13 -4 -3 -16 3 -27 13 -10 9
-13 13 -6 8 29 -19 11 4 -19 25 -27 19 -30 19 -18 4 10 -13 2 -10 -27 10 -24
15 -43 30 -43 32 0 2 5 1 10 -2 6 -3 10 -4 10 -1 0 3 -10 10 -21 17 -15 7 -19
8 -15 0 5 -7 1 -9 -8 -5 -9 3 -13 11 -9 17 3 6 1 7 -5 3 -6 -4 -39 7 -72 24
-170 86 -353 122 -592 118 -87 -2 -148 -6 -136 -9z m163 -229 c-30 -5 -16 -7
50 -7 75 0 82 1 40 7 l-50 7 41 1 c61 3 202 -24 286 -54 77 -28 188 -81 188
-89 0 -3 -9 -1 -20 5 -34 18 -22 3 16 -19 41 -24 57 -28 28 -6 -10 8 -15 15
-10 15 4 0 24 -17 44 -37 20 -21 29 -29 21 -18 -13 19 -13 19 6 5 11 -8 61
-56 110 -106 75 -75 78 -77 20 -15 l-70 76 83 -80 c45 -44 82 -86 82 -95 1 -8
12 -28 26 -45 15 -16 23 -23 18 -15 -7 13 -5 13 8 2 9 -8 14 -20 11 -28 -3 -9
0 -14 8 -12 8 2 13 -4 13 -14 -1 -10 1 -16 5 -13 12 7 43 -55 37 -71 -3 -9 -1
-12 4 -9 13 8 31 -40 23 -62 -4 -11 -3 -14 5 -9 13 8 47 -97 38 -120 -3 -7 -1
-14 5 -14 14 0 9 -103 -5 -112 -7 -5 -7 -8 2 -8 8 0 12 -16 12 -45 0 -25 -4
-45 -9 -45 -5 0 -7 -8 -4 -18 7 -27 -46 -184 -59 -176 -6 4 -8 3 -4 -4 8 -13
-14 -63 -24 -57 -5 3 -11 -2 -14 -11 -3 -8 -2 -12 4 -9 6 3 7 -1 4 -9 -3 -9
-10 -14 -14 -11 -4 3 -7 -3 -6 -13 0 -9 -4 -16 -11 -15 -7 2 -10 -3 -7 -11 3
-8 0 -17 -7 -22 -8 -5 -10 -3 -4 6 5 8 4 11 -3 6 -6 -4 -9 -13 -6 -20 3 -7 -3
-19 -12 -27 -16 -12 -17 -12 -9 1 4 8 6 13 4 10 -3 -3 -30 -32 -59 -65 l-54
-60 54 50 55 50 -49 -52 c-27 -28 -54 -49 -61 -46 -7 2 -16 -1 -21 -8 -5 -8
-3 -10 6 -4 9 5 11 4 6 -4 -4 -6 -11 -9 -16 -6 -12 7 -41 -5 -35 -15 7 -12
-93 -48 -167 -60 -35 -5 -93 -10 -129 -10 -61 0 -72 3 -125 39 -33 22 -94 73
-137 113 -43 41 -79 72 -81 71 -4 -4 -524 523 -749 759 l-179 187 27 36 c15
19 30 35 32 35 3 0 -1 -8 -8 -17 -13 -16 -12 -17 3 -4 10 7 15 17 12 22 -7 11
106 130 117 124 6 -4 131 82 149 103 11 13 -58 -33 -100 -66 -25 -20 -36 -26
-25 -13 27 32 153 113 178 116 37 4 38 5 33 14 -3 4 25 22 62 38 86 39 105 45
97 33 -3 -6 -2 -10 3 -10 6 0 12 6 15 14 6 15 87 39 87 25 0 -5 8 -9 18 -9 13
0 14 2 4 9 -10 6 -9 10 7 14 12 3 21 1 21 -4 0 -15 47 -10 60 6 8 9 28 14 54
14 l41 -2 -40 -7z"/>
</g>
</svg>
